<?xml version="1.0" encoding="UTF-8" standalone="no"?>
<svg
   version="1.0"
   width="401.04993pt"
   height="424.88455pt"
   viewBox="0 0 401.04993 424.88455"
   preserveAspectRatio="xMidYMid meet"
   id="svg14"
   sodipodi:docname="09318df9c6cf5f9e07bcc19f8a078ce3.svg"
   xmlns:inkscape="http://www.inkscape.org/namespaces/inkscape"
   xmlns:sodipodi="http://sodipodi.sourceforge.net/DTD/sodipodi-0.dtd"
   xmlns="http://www.w3.org/2000/svg"
   xmlns:svg="http://www.w3.org/2000/svg">
  <defs
     id="defs18" />
  <sodipodi:namedview
     id="namedview16"
     pagecolor="#ffffff"
     bordercolor="#666666"
     borderopacity="1.0"
     inkscape:pageshadow="2"
     inkscape:pageopacity="0.0"
     inkscape:pagecheckerboard="0"
     inkscape:document-units="pt" />
  <metadata
     id="metadata2">
Created by potrace 1.16, written by Peter Selinger 2001-2019
</metadata>
  <g
     transform="matrix(0.1,0,0,-0.1,-46.950086,462)"
     fill="#000000"
     stroke="none"
     id="g12">
    <path
       d="m 1390,4595 c -19,-20 -75,-210 -277,-928 -139,-496 -253,-911 -253,-922 0,-36 37,-83 74,-93 23,-7 374,-8 960,-5 l 925,6 25,26 c 19,21 71,194 275,922 138,492 251,910 251,928 0,23 -9,41 -29,62 l -29,29 h -949 -950 z"
       id="path4" />
    <path
       d="m 3425,3763 c -62,-17 -66,-25 -139,-288 -24,-88 -78,-283 -120,-432 -42,-150 -76,-287 -76,-304 0,-20 10,-40 29,-60 l 29,-29 h 506 505 l 26,23 c 23,19 44,84 160,497 74,261 135,483 135,493 0,28 -28,75 -52,88 -23,12 -962,24 -1003,12 z"
       id="path6" />
    <path
       d="m 767,2332 c -34,-21 -40,-39 -123,-337 -36,-132 -91,-328 -121,-435 -56,-202 -63,-243 -44,-279 28,-51 33,-52 566,-49 l 495,3 24,25 c 20,20 50,113 156,489 71,255 130,479 130,498 0,45 -14,69 -50,88 -25,13 -101,15 -517,15 -443,-1 -491,-2 -516,-18 z"
       id="path8" />
    <path
       d="m 2113,2331 c -24,-15 -35,-32 -47,-73 -8,-29 -49,-174 -90,-323 -41,-148 -134,-481 -206,-740 -216,-774 -201,-716 -189,-752 6,-19 24,-41 44,-53 33,-20 39,-20 960,-18 l 926,3 20,25 c 12,14 18,19 14,13 -3,-7 -2,-13 3,-13 5,0 16,19 25,43 14,37 82,271 92,315 6,26 43,158 70,247 13,44 42,148 65,230 47,170 122,435 216,767 35,125 64,239 64,253 0,17 -12,39 -34,61 l -34,34 h -933 c -904,0 -935,-1 -966,-19 z"
       id="path10" />
  </g>
</svg>
